<svg xmlns="http://www.w3.org/2000/svg" xmlns:xlink="http://www.w3.org/1999/xlink" version="1.1" x="0px" y="0px" viewBox="0 0 100 100" enable-background="new 0 0 100 100" xml:space="preserve"><path d="M39,88.6l-7-7.8v-9.7h7V88.6z M41.8,71.1v18.4h16.9V71.1H41.8z M69.1,71.1h-7.5v17.5l7.5-8.4V71.1z M17.6,2.8v65.5H22v-61  C22,4.8,20,2.8,17.6,2.8z M11.4,50.7v11.9c0,2.7,1.8,4.9,4.3,5.5V45.2c-1,0.2-1.9,0.7-2.6,1.5C12,47.7,11.4,49.1,11.4,50.7z   M72,81.3l-9.9,11.1h-1.8H40.4h-1.8l-9.4-10.5V71.1h-4.3v14.7l10.9,10.9h29l11.6-11.6v-14H72V81.3z M24.9,68.3h51.4v-1.7v-2.2H24.9  V68.3z M79.1,7.2v61h4.4V2.8C81.1,2.8,79.1,4.8,79.1,7.2z M32,51.9v9.3h9.3v-9.3H32z M88,46.6c-0.7-0.7-1.6-1.2-2.6-1.5v22.9  c2.5-0.6,4.3-2.9,4.3-5.5V50.7C89.7,49.1,89.1,47.7,88,46.6z M39,26.9c0-0.8,0.6-1.4,1.4-1.4h19.8c0.8,0,1.4,0.6,1.4,1.4v12h7.3  V22.2c0-2.5-2.2-4.5-5-4.5H37c-2.8,0-5,2-5,4.5V39h7V26.9z M59.9,51.9v9.3h9.3v-9.3H59.9z M72,21.6V39h4.3V25.9  C76.3,23.5,74.3,21.6,72,21.6z M29.2,21.6c-2.4,0-4.3,1.9-4.3,4.3V39h4.3V21.6z M69.9,41.8H31.2c-3.5,0-6.3,2.8-6.3,6.3h51.4  C76.3,44.7,73.4,41.8,69.9,41.8z"></path></svg>